<svg id="Layer_1" data-name="Layer 1" xmlns="http://www.w3.org/2000/svg" viewBox="0 0 432 266.46"><defs><style>.cls-1{font-size:134.73px;font-family:PoiretOne-Regular, Poiret One;}.cls-1,.cls-2{fill:#661115;}</style></defs><title>Artboard 1</title><text class="cls-1" transform="translate(2.26 117.46) scale(1.03 1)">Megan</text><path class="cls-2" d="M32,183.46c.64-1.24,1.46-2.77,2.46-4.61s2-3.68,3.13-5.54,2.15-3.61,3.19-5.26a39.32,39.32,0,0,1,2.65-3.78,11.8,11.8,0,0,1,3.83-3.09,8.67,8.67,0,0,1,3.64-.93,5.67,5.67,0,0,1,2.85.68,5.75,5.75,0,0,1,1.94,1.83,8.34,8.34,0,0,1,1.15,2.66,13,13,0,0,1,.39,3.25c0,.66,0,1.52-.1,2.6s-.13,2.22-.19,3.46-.13,2.52-.19,3.84-.12,2.56-.16,3.72q1-1.86,2.17-4.12c.81-1.51,1.63-3,2.46-4.49s1.63-2.88,2.39-4.18a32.08,32.08,0,0,1,2.11-3.19,16.66,16.66,0,0,1,5.14-4.89,9.53,9.53,0,0,1,4.25-1.23,7.32,7.32,0,0,1,3.57.77,6.14,6.14,0,0,1,2.2,2A7.64,7.64,0,0,1,82,165.63a13.75,13.75,0,0,1,.32,2.85,32.45,32.45,0,0,1-.32,4.4,40.42,40.42,0,0,0-.32,5.44c0,.87,0,1.74.13,2.6a8.28,8.28,0,0,0,.54,2.29,3.68,3.68,0,0,0,1.31,1.61,4.17,4.17,0,0,0,2.43.62,7,7,0,0,0,3.26-.83,14.36,14.36,0,0,0,3.06-2.2,23.27,23.27,0,0,0,2.78-3.1c.87-1.15,1.67-2.31,2.39-3.46s1.37-2.26,1.92-3.31,1-1.95,1.34-2.7a2.49,2.49,0,0,1,.89-1.05,2.3,2.3,0,0,1,1.28-.37,2.25,2.25,0,0,1,1.76.77,2.53,2.53,0,0,1,.67,1.64,2.28,2.28,0,0,1-.19.87c-.17.33-.51,1-1,2.07a36,36,0,0,1-2,3.59q-1.27,2-3,4.24a31.75,31.75,0,0,1-3.73,4.12,20.13,20.13,0,0,1-4.41,3.1,10.88,10.88,0,0,1-5,1.2,9.51,9.51,0,0,1-4.57-1,7.73,7.73,0,0,1-2.81-2.57,9.88,9.88,0,0,1-1.43-3.71,24.06,24.06,0,0,1-.39-4.39,46.27,46.27,0,0,1,.32-5.61,33,33,0,0,0,.32-4,7.41,7.41,0,0,0-.28-2.35,2.64,2.64,0,0,0-.71-1.15,1.48,1.48,0,0,0-.8-.37l-.57,0a4.81,4.81,0,0,0-3.22,1.64,26.32,26.32,0,0,0-3.49,4.37q-1.78,2.72-3.67,6.19t-3.8,7c-.72,1.32-1.33,2.42-1.82,3.28a11.61,11.61,0,0,1-1.4,2.05,4.57,4.57,0,0,1-1.31,1.05,3.26,3.26,0,0,1-1.4.31,3,3,0,0,1-2.53-1.12,4.64,4.64,0,0,1-.86-2.91c0-.62,0-1.44.06-2.47s.09-2.17.13-3.41.11-2.51.19-3.83.15-2.59.2-3.81.08-2.3.12-3.25.07-1.67.07-2.17a3.68,3.68,0,0,0-.58-2.32,1.7,1.7,0,0,0-1.34-.71,3.16,3.16,0,0,0-1.56.49,7.83,7.83,0,0,0-2,1.92c-.6.75-1.36,1.83-2.27,3.25s-1.89,3-2.91,4.74-2,3.51-3,5.32-1.86,3.45-2.59,4.89A9.8,9.8,0,0,1,33.45,189a4.51,4.51,0,0,1-2.62,1,3.35,3.35,0,0,1-2.74-1.08,4.35,4.35,0,0,1-.9-2.88c0-.12,0-.87.1-2.23s.14-3,.22-5,.18-4.06.29-6.29.2-4.31.29-6.25a15.18,15.18,0,0,0-.13-2.84,2.78,2.78,0,0,0-.51-1.55c-.34.08-1,.84-2,2.29a46.62,46.62,0,0,0-3.8,7.55,2.38,2.38,0,0,1-1,1.05,2.61,2.61,0,0,1-1.34.37,2.19,2.19,0,0,1-1.73-.71,2.39,2.39,0,0,1-.63-1.64,2.53,2.53,0,0,1,.19-.93,41.15,41.15,0,0,1,5.49-9.75C24.4,158,26.11,157,27.77,157a4.34,4.34,0,0,1,2.46.65,4.71,4.71,0,0,1,1.56,1.67,7.77,7.77,0,0,1,.83,2.32,13.19,13.19,0,0,1,.26,2.54q0,5.5-.29,10.09C32.4,177.29,32.2,180.37,32,183.46Z"/><path class="cls-2" d="M150.18,171.7l-1.05,2.07c-.54,1.06-1.22,2.26-2,3.62s-1.79,2.79-2.9,4.28a29.26,29.26,0,0,1-3.7,4.08,20.69,20.69,0,0,1-4.41,3.07,10.88,10.88,0,0,1-5,1.2,8.91,8.91,0,0,1-6.23-2.29,13.23,13.23,0,0,1-3.67-5.75,18.41,18.41,0,0,1-5.17,5.6,10.51,10.51,0,0,1-6,2.07,10.68,10.68,0,0,1-4.28-.83,9.09,9.09,0,0,1-3.26-2.36,10.65,10.65,0,0,1-2.07-3.56,12.79,12.79,0,0,1-.74-4.45,20.13,20.13,0,0,1,1.69-8.51,19.7,19.7,0,0,1,4.31-6.16,18.08,18.08,0,0,1,5.78-3.72,16.82,16.82,0,0,1,6.1-1.24,12,12,0,0,1,3.64.53A16.88,16.88,0,0,1,124,160.5a10.44,10.44,0,0,1,1.82,1.14c.43.35.66.55.7.59a2.52,2.52,0,0,1,.71,1.67,2.26,2.26,0,0,1-.71,1.64,2.22,2.22,0,0,1-1.66.71,2.35,2.35,0,0,1-1.72-.68c-.09-.08-.28-.24-.57-.46a6.8,6.8,0,0,0-1.22-.71,9.58,9.58,0,0,0-1.82-.65,9.17,9.17,0,0,0-2.39-.28,12.07,12.07,0,0,0-8.3,3.56,14.83,14.83,0,0,0-3.1,4.58,15.72,15.72,0,0,0-1.25,6.53,11.48,11.48,0,0,0,.26,2.38,6.57,6.57,0,0,0,.89,2.2,4.88,4.88,0,0,0,1.73,1.61,5.34,5.34,0,0,0,2.68.62,6.06,6.06,0,0,0,2.65-.75,9.31,9.31,0,0,0,2.87-2.29,16.16,16.16,0,0,0,2.49-3.9,18.87,18.87,0,0,0,1.57-5.57,2.25,2.25,0,0,1,.83-1.45,2.52,2.52,0,0,1,1.66-.59,2.13,2.13,0,0,1,1.56.68,2.46,2.46,0,0,1,.74,1.55c0,.78.12,1.89.25,3.31a20.33,20.33,0,0,0,.86,4.24,10.23,10.23,0,0,0,2,3.65,4.63,4.63,0,0,0,3.7,1.55,6.42,6.42,0,0,0,3-.8,14.42,14.42,0,0,0,2.94-2.14,25.34,25.34,0,0,0,2.75-3c.87-1.14,1.67-2.28,2.39-3.44s1.36-2.27,1.92-3.34,1-2,1.4-2.79a2.38,2.38,0,0,1,.93-1.05,2.43,2.43,0,0,1,1.31-.37,2.21,2.21,0,0,1,1.75.77,2.48,2.48,0,0,1,.67,1.64A2.1,2.1,0,0,1,150.18,171.7Z"/><path class="cls-2" d="M152.48,163.53a28.58,28.58,0,0,1-.64,3.12c-.25,1-.5,1.82-.73,2.54s-.44,1.31-.61,1.77a4.21,4.21,0,0,1-.32.74,2.25,2.25,0,0,1-2.23,1.42,2.47,2.47,0,0,1-1.66-.65,2.06,2.06,0,0,1-.77-1.64.93.93,0,0,1,.13-.55,7.93,7.93,0,0,0,.38-.75,16.41,16.41,0,0,0,.64-1.85c.25-.87.57-2.21,1-4-.73,0-1.47,0-2.24-.06a7.08,7.08,0,0,1-2.14-.43,3.72,3.72,0,0,1-1.63-1.18,3.52,3.52,0,0,1-.63-2.23,9.53,9.53,0,0,1,.6-2.84,19,19,0,0,1,1.63-3.53,14.84,14.84,0,0,1,2.3-3,3.69,3.69,0,0,1,2.55-1.26,3.06,3.06,0,0,1,2.4,1,7.54,7.54,0,0,1,1.44,2.57,17.13,17.13,0,0,1,.73,3.18,22.24,22.24,0,0,1,.22,2.91c.73,0,1.44,0,2.14,0l2,0a8.69,8.69,0,0,1,5.56,1.55q1.92,1.55,1.92,5.08a23.77,23.77,0,0,1-.2,3c-.12,1-.27,2.09-.44,3.18s-.32,2.18-.45,3.25a26.37,26.37,0,0,0-.19,3.16,9.15,9.15,0,0,0,.64,3.69,6.62,6.62,0,0,0,1.59,2.32,5.47,5.47,0,0,0,2.05,1.2,6.54,6.54,0,0,0,2,.34,8.71,8.71,0,0,0,5.17-1.73,23.73,23.73,0,0,0,4.47-4.18,40.65,40.65,0,0,0,3.67-5.17q1.64-2.71,2.71-4.76a2.35,2.35,0,0,1,.9-.87,2.48,2.48,0,0,1,1.21-.31,2.3,2.3,0,0,1,1.79.71,2.35,2.35,0,0,1,.64,1.58,2.43,2.43,0,0,1-.26,1.12q-1.47,2.54-3.41,5.72a41.18,41.18,0,0,1-4.44,6,25.52,25.52,0,0,1-5.59,4.7,12.64,12.64,0,0,1-6.8,1.92,11.3,11.3,0,0,1-4.34-.84,10,10,0,0,1-3.55-2.41,11.52,11.52,0,0,1-2.39-3.9,14.38,14.38,0,0,1-.9-5.23,30.53,30.53,0,0,1,.64-6.16,28.36,28.36,0,0,0,.64-5.85,2.57,2.57,0,0,0-.54-1.77,3.4,3.4,0,0,0-2.4-.58h-1.94C154,163.47,153.29,163.49,152.48,163.53ZM148.2,159c0-.29,0-.67,0-1.15a12.59,12.59,0,0,0-.13-1.39,7.55,7.55,0,0,0-.25-1.18c-.11-.33-.23-.49-.35-.49s-.29.15-.48.46a10.11,10.11,0,0,0-.61,1.12,11.84,11.84,0,0,0-.57,1.39c-.18.5-.3.91-.39,1.24Z"/><path class="cls-2" d="M185.49,176.65a138.88,138.88,0,0,1,1.15-17.76,2.6,2.6,0,0,1,.8-1.52,2.43,2.43,0,0,1,1.76-.65,2,2,0,0,1,1.59.71,2.37,2.37,0,0,1,.64,1.64c0,.25-.05,1-.16,2.23s-.23,2.71-.38,4.43-.28,3.52-.38,5.44-.16,3.69-.16,5.3a17.07,17.07,0,0,0,.67,5.29,8.22,8.22,0,0,0,1.72,3.12,5.25,5.25,0,0,0,2.24,1.49,7.41,7.41,0,0,0,2.26.37A6.84,6.84,0,0,0,201,185.5a20.3,20.3,0,0,0,3.92-3.46,42.48,42.48,0,0,0,4.06-5.36,78.33,78.33,0,0,0,4-7,2.32,2.32,0,0,1,.9-1,2.39,2.39,0,0,1,1.27-.34,2.22,2.22,0,0,1,1.7.74,2.4,2.4,0,0,1,.67,1.61,2,2,0,0,1-.26,1c-.51,1-1.15,2.11-1.92,3.47s-1.63,2.77-2.61,4.21-2.06,2.88-3.23,4.3a30.22,30.22,0,0,1-3.73,3.84,19.52,19.52,0,0,1-4.15,2.75,9.93,9.93,0,0,1-4.41,1.06,10.49,10.49,0,0,1-5.05-1.18,11.36,11.36,0,0,1-3.67-3.16,13.5,13.5,0,0,1-2.23-4.67A21.91,21.91,0,0,1,185.49,176.65Z"/><path class="cls-2" d="M220.55,182.16A9.81,9.81,0,0,0,224,185a12.35,12.35,0,0,0,10.86-.37,18.75,18.75,0,0,0,4.66-3.81,30.42,30.42,0,0,0,3.76-5.26q1.66-2.91,3-5.82a2.29,2.29,0,0,1,.89-1,2.43,2.43,0,0,1,1.28-.34,2.25,2.25,0,0,1,1.75.74,2.35,2.35,0,0,1,.67,1.61,2,2,0,0,1-.06.53,2.81,2.81,0,0,1-.19.46q-4.41,9.42-9.61,14.18a17.57,17.57,0,0,1-11.78,4.89,15.73,15.73,0,0,1-7.28-1.58,15.13,15.13,0,0,1-5.05-4.09A17.06,17.06,0,0,1,214,179.5a22,22,0,0,1-.95-6.31,20.23,20.23,0,0,1,.79-5.82,14.77,14.77,0,0,1,2.3-4.65,11,11,0,0,1,3.58-3.09,9.51,9.51,0,0,1,4.57-1.12,7.67,7.67,0,0,1,2.9.59,8.58,8.58,0,0,1,2.59,1.67,8.27,8.27,0,0,1,2.55,6.16,12.8,12.8,0,0,1-.89,4.77,16.07,16.07,0,0,1-2.46,4.15,21.06,21.06,0,0,1-3.74,3.53A27.59,27.59,0,0,1,220.55,182.16Zm-1.91-4a16.05,16.05,0,0,0,3.6-2,14.71,14.71,0,0,0,2.78-2.73,12.57,12.57,0,0,0,1.79-3.12,9.23,9.23,0,0,0,.64-3.32,3.81,3.81,0,0,0-1-2.81,3.05,3.05,0,0,0-2.23-1,4.69,4.69,0,0,0-2.94.93,7,7,0,0,0-2,2.41,12.18,12.18,0,0,0-1.12,3.31,19.54,19.54,0,0,0-.35,3.62,13.21,13.21,0,0,0,.22,2.36A23.09,23.09,0,0,0,218.64,178.14Z"/><path class="cls-2" d="M298.14,195q12-15.16,16.66-25.2a2.43,2.43,0,0,1,.86-1,2.39,2.39,0,0,1,1.25-.34,2.43,2.43,0,0,1,1.79.71,2.27,2.27,0,0,1,.7,1.64,2.1,2.1,0,0,1-.19.87,94,94,0,0,1-8,13.8q-5.18,7.62-13.09,17.21,0,3.9.06,7.8t.06,8.55q0,4.63-.22,9.19c-.15,3-.41,5.92-.8,8.66a56.24,56.24,0,0,1-1.56,7.62,24.08,24.08,0,0,1-2.56,6.06,12.4,12.4,0,0,1-3.76,4,9.25,9.25,0,0,1-5.21,1.45,7.64,7.64,0,0,1-6.57-3.15c-1.54-2.11-2.3-5.1-2.3-9a41.4,41.4,0,0,1,.6-6.72,62,62,0,0,1,1.76-7.46,80.63,80.63,0,0,1,2.78-7.76c1.08-2.63,2.28-5.17,3.6-7.65a73.66,73.66,0,0,1,4.32-7.12,51.77,51.77,0,0,1,4.94-6.19q.08-4.33.1-8.6t.16-7.86a14.35,14.35,0,0,1-4.57,3.71,11.39,11.39,0,0,1-5.27,1.36,9.68,9.68,0,0,1-4.05-.83,8.77,8.77,0,0,1-3.1-2.36,11,11,0,0,1-2-3.56,13.53,13.53,0,0,1-.7-4.45,20.13,20.13,0,0,1,1.69-8.51,19.7,19.7,0,0,1,4.31-6.16,18.08,18.08,0,0,1,5.78-3.72,16.82,16.82,0,0,1,6.1-1.24,12.71,12.71,0,0,1,3.64.5,16.19,16.19,0,0,1,2.84,1.11,9.74,9.74,0,0,1,1.82,1.18c.43.37.66.58.7.62a2.36,2.36,0,0,1,.71,1.67,2.26,2.26,0,0,1-.71,1.64,2.22,2.22,0,0,1-1.66.71,2.65,2.65,0,0,1-1.72-.68c-.17-.12-.39-.3-.67-.52a7.34,7.34,0,0,0-1.09-.72,7.64,7.64,0,0,0-1.59-.62,8.89,8.89,0,0,0-2.21-.24,12.59,12.59,0,0,0-4.21.83,13.12,13.12,0,0,0-4.28,2.63,14.8,14.8,0,0,0-3.32,4.61,15.73,15.73,0,0,0-1.34,6.78,8,8,0,0,0,1.34,4.8,4.81,4.81,0,0,0,4.15,1.83,6.35,6.35,0,0,0,2.84-.75,9.79,9.79,0,0,0,2.91-2.29,14.73,14.73,0,0,0,2.46-3.9,20.58,20.58,0,0,0,1.5-5.57,2.25,2.25,0,0,1,.83-1.45,2.52,2.52,0,0,1,1.66-.59,2.07,2.07,0,0,1,1.69.74,2.63,2.63,0,0,1,.61,1.67c0,.05,0,.68-.07,1.89s-.08,2.84-.12,4.86-.1,4.37-.16,7S298.18,192.07,298.14,195Zm-4.86,13.55a61.75,61.75,0,0,0-5.42,8.76,79.86,79.86,0,0,0-4.16,9.57,68.92,68.92,0,0,0-2.64,9.37,41.19,41.19,0,0,0-.93,8.14,13.28,13.28,0,0,0,.41,3.66,6.13,6.13,0,0,0,1,2.1,2.88,2.88,0,0,0,1.34,1,4.15,4.15,0,0,0,1.37.25,4.62,4.62,0,0,0,3.45-1.55,12.7,12.7,0,0,0,2.49-4.11,33.28,33.28,0,0,0,1.66-5.92c.42-2.22.74-4.53,1-6.9s.36-4.73.44-7.09.13-4.51.13-6.5V214C293.41,212.27,293.37,210.45,293.28,208.59Z"/><path class="cls-2" d="M364.16,171.7l-1.05,2.07c-.53,1.06-1.21,2.26-2,3.62s-1.8,2.79-2.91,4.28a29.26,29.26,0,0,1-3.7,4.08,20.2,20.2,0,0,1-4.41,3.07,10.82,10.82,0,0,1-5,1.2,8.89,8.89,0,0,1-6.22-2.29,13.16,13.16,0,0,1-3.68-5.75,18.29,18.29,0,0,1-5.17,5.6,10.51,10.51,0,0,1-6,2.07,10.71,10.71,0,0,1-4.28-.83,9.18,9.18,0,0,1-3.26-2.36,10.83,10.83,0,0,1-2.07-3.56,13,13,0,0,1-.74-4.45,20.13,20.13,0,0,1,1.7-8.51,19.38,19.38,0,0,1,4.31-6.16,17.86,17.86,0,0,1,5.78-3.72,16.77,16.77,0,0,1,6.09-1.24,12,12,0,0,1,3.64.53A17,17,0,0,1,338,160.5a11.27,11.27,0,0,1,1.82,1.14l.7.59a2.51,2.51,0,0,1,.7,1.67,2.41,2.41,0,0,1-2.36,2.35,2.38,2.38,0,0,1-1.73-.68,5.7,5.7,0,0,0-.57-.46,6.67,6.67,0,0,0-1.21-.71,9.58,9.58,0,0,0-1.82-.65,9.3,9.3,0,0,0-2.4-.28,11.81,11.81,0,0,0-4.21.86,11.94,11.94,0,0,0-4.09,2.7,14.83,14.83,0,0,0-3.1,4.58,15.72,15.72,0,0,0-1.24,6.53,11.46,11.46,0,0,0,.25,2.38,6.39,6.39,0,0,0,.9,2.2,4.85,4.85,0,0,0,1.72,1.61,5.37,5.37,0,0,0,2.68.62,6.06,6.06,0,0,0,2.65-.75,9.46,9.46,0,0,0,2.88-2.29,16.79,16.79,0,0,0,2.49-3.9,19.18,19.18,0,0,0,1.56-5.57,2.3,2.3,0,0,1,.83-1.45,2.52,2.52,0,0,1,1.66-.59,2.15,2.15,0,0,1,1.57.68,2.44,2.44,0,0,1,.73,1.55c0,.78.13,1.89.26,3.31a19.12,19.12,0,0,0,.86,4.24,10.36,10.36,0,0,0,2,3.65,4.64,4.64,0,0,0,3.7,1.55,6.43,6.43,0,0,0,3-.8,14.1,14.1,0,0,0,2.93-2.14,24.52,24.52,0,0,0,2.75-3c.87-1.14,1.67-2.28,2.39-3.44s1.37-2.27,1.92-3.34,1-2,1.4-2.79a2.5,2.5,0,0,1,.93-1.05,2.45,2.45,0,0,1,1.31-.37,2.25,2.25,0,0,1,1.76.77,2.53,2.53,0,0,1,.67,1.64A2.12,2.12,0,0,1,364.16,171.7Z"/><path class="cls-2" d="M404.52,171.76a42.61,42.61,0,0,1-.89,6.47,20.4,20.4,0,0,1-2.2,5.85,12.89,12.89,0,0,1-3.93,4.24,10.51,10.51,0,0,1-6,1.64,11,11,0,0,1-3.93-.65,9.72,9.72,0,0,1-2.94-1.73,10,10,0,0,1-2.07-2.48,17.28,17.28,0,0,1-1.41-2.94,17.25,17.25,0,0,1-5.27,5.54,11.08,11.08,0,0,1-6,2,10.64,10.64,0,0,1-4.38-.87,9.45,9.45,0,0,1-3.32-2.44,11.55,11.55,0,0,1-2.14-3.81,15.33,15.33,0,0,1-.76-5,32.94,32.94,0,0,1,.86-8A28.9,28.9,0,0,1,362,164a21.42,21.42,0,0,1,2.84-4.33,2,2,0,0,1,.79-.56,2.81,2.81,0,0,1,1-.18,2.21,2.21,0,0,1,1.69.71,2.34,2.34,0,0,1,.67,1.64,2.8,2.8,0,0,1-.51,1.48l-1,1.43A15.93,15.93,0,0,0,366,167a26,26,0,0,0-2,10.52,8.65,8.65,0,0,0,1.53,5.54,5.2,5.2,0,0,0,4.28,1.89,7.4,7.4,0,0,0,2.94-.71,9.64,9.64,0,0,0,3-2.2,13.44,13.44,0,0,0,2.42-3.78,16.48,16.48,0,0,0,1.28-5.38l.83-10.65a2.14,2.14,0,0,1,.8-1.55,2.56,2.56,0,0,1,1.69-.62,2.1,2.1,0,0,1,1.72.78,2.65,2.65,0,0,1,.64,1.76l-.7,10.21a25,25,0,0,0,.22,5.64,10.72,10.72,0,0,0,1.38,3.87,6,6,0,0,0,2.36,2.22,6.77,6.77,0,0,0,3.13.72,6,6,0,0,0,3.89-1.3,9.09,9.09,0,0,0,2.56-3.53,20.39,20.39,0,0,0,1.37-5.17,44,44,0,0,0,.42-6.22,39.07,39.07,0,0,0-.45-6.5,25.57,25.57,0,0,1-.45-3.47,2.28,2.28,0,0,1,.71-1.64,2.45,2.45,0,0,1,3.25-.18,2.4,2.4,0,0,1,.83,1.39c0,.16.17.64.39,1.42s.51,1.73.89,2.82a28.22,28.22,0,0,0,1.5,3.47,17.74,17.74,0,0,0,2.23,3.37,12.27,12.27,0,0,0,3,2.57,7.3,7.3,0,0,0,3.86,1,4.4,4.4,0,0,0,2.07-.46,5.66,5.66,0,0,0,2.3-2.26l.36-.69a2.62,2.62,0,0,1,.92-1.08,2.3,2.3,0,0,1,1.31-.4,2.25,2.25,0,0,1,1.76.77,2.53,2.53,0,0,1,.67,1.64,4.58,4.58,0,0,1-.67,2,9.73,9.73,0,0,1-1.89,2.39,11.65,11.65,0,0,1-3,2,8.83,8.83,0,0,1-3.86.83,10.94,10.94,0,0,1-3.45-.52,13.91,13.91,0,0,1-3-1.39,15.65,15.65,0,0,1-2.52-2A21.23,21.23,0,0,1,404.52,171.76Z"/></svg>