<svg id="Layer_1" data-name="Layer 1" xmlns="http://www.w3.org/2000/svg" viewBox="0 0 792 612"><defs><style>.cls-1{fill:#fde3e0;}.cls-2{fill:#fabfbc;}.cls-3{fill:#fbcbc7;}.cls-4{fill:#fcd7d4;}.cls-5{fill:#feedea;}.cls-6{fill:none;stroke:#fcd5d1;stroke-width:0;}.cls-7{fill:#fff7f6;}.cls-8{fill:#600527;}.cls-9{fill:#8c8c8c;}</style></defs><title>Artboard 1</title><path class="cls-1" d="M272.27,468.49c7,13,15.91,17.63,24.15,20.25s15.19,2.44,17.89,5.16a9.42,9.42,0,0,0,7.89,2.15c2.69-.46,5.36-2.05,8-4.42a57.19,57.19,0,0,0,7.8-9.08c1.28-1.78,2.55-3.67,3.8-5.62s2.62-3.86,3.89-5.83c5.11-7.88,9.85-16,13.6-21.34a21.68,21.68,0,0,1,4.88-5.5c1.32-.88,2.28-.71,2.79.88,2.57,9.06,13.55,33.94,24.35,57s21.45,44.19,24.38,45.49c7.21,3.65,13.09,1.11,17.1-6.42s6.47-19.93,7.93-35.64c1.91-13.84,1.62-13.7,3.49-20.72,1.41-10.55-5-33.77-2.34-53,1.06-6.11,3.48-8.47,5.85-11s4.68-5.37,5.37-12.42c2.17-10.41,9.29-22,17-32.65s16-20.23,19.9-26.77c7.43-12.45,13.53-20.14,19.95-23.74s13.25-3.11,22.4.82c14.51,9.11,21.95-2.42,35.12-.78,13.38-.11,21.41-6.24,34.91-6.56a74,74,0,0,0,20,4.72A50.18,50.18,0,0,0,641.5,321a11,11,0,0,0,3.21-6.88c.39-3.54,4-3.17,5.45-4.84,12,2.88,26.87,18.16,36.32,11.67,2.67-1.63,4.66-10.46,1.53-17.82A462,462,0,0,0,640.23,217c-7.47-10.56-13.72-15.1-19.84-17.62s-15.49,4.45-21.75,2.81c-4.28-.94-5.34-11.53-10.14-16.86a136,136,0,0,1-14.93-21.08c-10.12-17-20.35-38.92-29.64-60.77C537,86.38,529.22,64.27,521.75,47.08s-14.89-29.45-20.84-26.77c-3.34,2.16-6.26,5.74-9.07,9.68-1.41,2-2.78,4-4.16,6s-2.9,4-4.4,5.8c-6,7.22-12.72,11.65-22.51,4.85-3.47-2.74-6.9-5.45-10.26-8s-6.6-5-9.8-7.25c-6.41-4.44-12.65-8-19.11-9.71a35.76,35.76,0,0,0-6.18-4.18c-2.63-1.43-5.3-2.64-6.53-2.78-6.2,3.8-14,3.36-20.42,6.46s-11.69,9.87-12.27,27.86c-6.23,7.52-12.13,8.3-17.28,10.51a19.06,19.06,0,0,0-3.7,2.06,16.32,16.32,0,0,0-3.47,3.44c-2.19,2.89-4.11,7.16-5.68,13.82-3.77,17.83-7.08,36.44-11.48,52.37s-9.87,29.23-17.72,36a42.57,42.57,0,0,1-6.68,5.35,31.05,31.05,0,0,1-7.15,3.48,31.44,31.44,0,0,1-16,.82c-2-.05-8.59-7-15.72-15.08s-14.89-17-18.6-21.49c-13.69-16.2-20.95.33-23.46,16.59-2.37,31.15-7.41,53-15.91,71.43-4.11,3.92-12-2.78-17.55-.53-5.49,5-8.23,13.81-10.31,23.2-2.07,9.58-3.47,19.8-6.47,27.38-16,18-23.72,25.24-24.48,32.79s-3.39,7.85-4.76,7.14c-3.6,2.35-5.38-6.08-12.14-6.8-7.79,1.14-9.58,14.83-8.08,27.55,1.29,17.55,2.79,35.52,1.91,48.56-.47,6.52-7.46,12.94-10,16.72s4.41,5.91-2.09,6.84c4,1.79,3.65,4.2,4.78,3.61,8.56-.68,17.4,1,25.72,3.57s16.24,6.17,23.47,9.32,13.82,5.87,19.79,6.86a24.55,24.55,0,0,0,8.5.06,16.55,16.55,0,0,0,7.47-3.26c.51-3.57.8-8.88,2.77-10.82,4.16-2.17,7-6,9.83-9.83,3.18-1.95,13.09,6.77,23.4,18.89S266.24,457.22,272.27,468.49Z"/><path class="cls-2" d="M602.43,195.89c12.57,3.26,23.21,1,38,22A460.92,460.92,0,0,1,688.23,304c3.15,7.37,1.13,16.19-1.54,17.8-9.44,6.52-15.94.31-28-2.58-1.41,1.64-3,1.78-6.55,4.76-2.81,1.17-7.22.4-8.63,2.08-6.43,2.08-12.34,1.92-18.75,1.49s-10.42,2.68-23.22,5.06c-11,3.87-23.52-8.93-34.23-4.46-16.09,7.94-25.3,10-36.91,6.43-9.16-3.92-16-6.88-22.44-3.27s-6.82,6.09-14.23,18.54c-3.88,6.54-15.68,16.18-23.47,26.77s-14.85,22.23-17,32.66c-.68,7-3,9.83-5.36,12.4s-5.94,11.33-7,17.42a175.26,175.26,0,0,0-20.28-41c17-54.74,1.53-62.8,57.54-163.93C520.31,221.54,562,209.27,602.43,195.89Z"/><path class="cls-3" d="M432.79,394.3s-5.53,19.52-12.75,29.6c-3.63,5-7.51,7.83-11.71,4.63s-8.59-12.33-12.82-31c0,0-1.27-11.91-2.7-30s-3-42.34-3.5-66.83-.18-49.41,1.9-68.85,5.74-30.66,9.69-36.57c0,0,5.46-5.48,10.71-8s10.49-4.69,16.3-4.5c0,0,23.56,26.3,37.36,3,0,0,3.89-4,9.91-9.54,3-2.78,6.56-6,10.41-9.25s7.9-6.64,12.08-9.82c16.87-12.7,34.37-22.3,40.07-9.87,0,0,2,.39,5.21,1.26a114.68,114.68,0,0,1,12.28,4.06c9.43,3.73,20.46,9.67,26.62,18.5a227.22,227.22,0,0,0,13.65,23.59c7.54,11.18,16.66,21.14,22.4,16.41,0,0,3.37,2.72,8.18,7s11.06,10.1,16.81,16.31c11.48,12.44,21.05,26.59,11.87,33.91,0,0-2.16,3.87-5,8.37s-6.41,9.47-9.11,11.91c0,0-5.91.1-14.89,0s-21-.59-33.2-1.56a245.44,245.44,0,0,1-34.61-4.88c-9.94-2.29-17.37-5.31-19.58-9.21,0,0-27.58-10.65-54.88-.85S428.93,312.57,432.79,394.3Z"/><path class="cls-4" d="M436.73,420.38s-1,22.45-5.36,37.87a40.52,40.52,0,0,1-4,9.82c-1.52,2.55-3.31,4.21-5.44,4.53-4.26.62-9.87-4.14-17.42-17.9,0,0-3.68-3.63-9.3-9.81S382.17,430.09,374.5,420c-15.22-20.19-31.56-46.11-32.25-70.14,0,0-.37-11.79,0-29.93.18-9.06.57-19.73,1.3-31.3s1.82-23.89,3.34-36.5c3-25.15,8-51.36,15.05-72.3,3.54-10.52,7.63-19.84,12.31-27.26S384,139.82,389.73,137c0,0,1.3-.31,2.95-4.41s3.63-12,5.08-27.18a43.13,43.13,0,0,1,3.28-5.08,33.24,33.24,0,0,1,8.53-8.44c7.13-4.55,16.82-4.76,26.83,12.68a251.63,251.63,0,0,0,22.85,20.11c6.06,4.63,12.46,8.85,18.06,11.12s10.22,2.61,13-.59c0,0,18,27.64,22.29,12.08,0,0-3.72,5-9.58,11.93A254.8,254.8,0,0,1,480.46,183c-8.72,7.94-17.88,14.79-26.14,17.72s-15.41,1.78-19.86-6.42c0,0-11.08-8.65-22.81.66-5.83,4.64-11.72,13.67-16.21,30.45s-7.52,41.37-7.25,76.7a463.08,463.08,0,0,0,12.36,52.92C408.8,382.53,424.56,406.71,436.73,420.38Z"/><path class="cls-5" d="M437.58,526.07c-.57,14,5.11,32.67,3.85,44.76-1.11,5.06-5.12,4.41-7.18,7.57-3.14,3-8.75-3.15-12.67-7.24-10.16-13.74-20.08-19.39-30-26-9.74-6.53-19.83-14.14-31.53-31.88-3.15-3.83-5.26-5.77-7.27-6,.09,1.76-.68,5.15-.57,6.9-4.63,3-10.48,2.51-14,7.32-1.25,2.46-3,3.47-5.24,3.37s-4.66-1.19-7.53-3.11c-5.69-3.82-12.66-10.7-19.86-17.94a82.45,82.45,0,0,0-11.45-8.91c-3.84-2.56-7.44-4.67-11.29-7.32-13-8.74-33.23-50.11-44.65-53.18-5-2.06-8.45-1.27-11.22.77s-4.79,5.4-6.73,8.84c-3.8,6.85-7.68,14.12-15.74,12.1-5.41-2.2-9.9-3.63-14.66-5.59A115.57,115.57,0,0,1,173.31,442a81.4,81.4,0,0,0-16.77-9.16A154.59,154.59,0,0,0,139,427.13c-1.43-.34-5.84-2.54-10.44-4.79s-9.3-4.6-10.74-5.81c-3.74-4,1.66-5.35,1.31-9.24-.06-5.19,4.78-4.65,10.43-2s12.29,7.33,16.72,9.58c5,2.11,7.78,1.38,10.3-.13s4.72-3.77,8-4.39c3.73,1.1,7.8,4,13.27,8.52,4.16,3.83,6.25,3.58,7.63,1.64s2.1-5.58,3.35-8.38c1-4.53,4.9-4.07,9.11-2.95s8.77,2.9,11.32.86c3.68-2.12,4.4-9.35,5.72-15.28s2.1-5.36,5.38-9.52c3.87-5.36,4.3-4.34,10.85-6.09a27.85,27.85,0,0,1,9.08-1c2.38.29,3.69,1.29,2.64,3.06-.12-1.77,5,5.17,7.67,10.44,1.37,3.46,4,8.71,4.17,10.46,1,14,10.79,35,16.88,52.4.31.44,1.49.53,3.26.62a70.23,70.23,0,0,1,7,.8,30.58,30.58,0,0,1,17.88,9.58c9.14,10.76,18,23.27,24.16,23.79.9-1.64-1.72-10.5-.79-12.18.75-.38,2-5.86,3.65-13.86s3.72-18.62,6.41-28.83c5.19-20.52,11.57-40.8,15-38.67C352.56,399.67,360.05,411,362,420c7.12,25.38,15.6,35.07,23.71,55.37,2,5.49,3,12.63,5,18.16,6.09,14.75,14.11,31.58,18.08,33.87,4,4.07,7.59,6.31,10.89,6.81s5.85-.89,7.5-4.16Z"/><path class="cls-6" d="M491.9,30.57s-3.25,10.22-11,15.74a17,17,0,0,1-14.6,2.87,29,29,0,0,1-9.7-4.75A65.76,65.76,0,0,1,445,33.76s-24.55-16.71-28.16-12.7l-8.52-6.4a44.1,44.1,0,0,0-16.37,5,30.4,30.4,0,0,0-11,10.05c-3,4.65-4.89,10.68-4.54,18.49a74.07,74.07,0,0,1-7,6.88c-3.74,3.14-7.95,5.66-9.88,3.23a5,5,0,0,0-2.18.68A15.47,15.47,0,0,0,352,64.07c-4.06,5.92-8.72,17.8-10.8,41.54"/><path class="cls-7" d="M337.27,539.66c-2.57-1.36-10.62-6.86-19.71-13.6S298.31,511.33,292.7,505c-8.67-9.36-17.41-18.62-26.51-28.06-4.64-4.77-9.28-9.54-14-14.34s-9.69-9.8-14.66-14.71c-1.59-1.08-3-1-2.61,1.37.94,8.14-1.24,10.6-3.86,12.23s-5.66,2.4-6.18,7c-.73,3.5.59,10.32-1.89,10.46a23.43,23.43,0,0,1-10.39-2.17A53.56,53.56,0,0,1,207,474c-1.88-1.14-4-2.41-6-3.83-8.39-5.66-18.22-13.52-30.38-21.26C160,442,145.3,432.53,130.35,427.65c-3.86-1.82-8.57-3-12.55-6-3.34-2,.17-3,0-5.07,3.12.14,8.33,2.58,12.23,3.2a45,45,0,0,0,10.1,1.32,21.44,21.44,0,0,1,10,3c7.66,3.65,15.81,10,22.21,13.56a35.81,35.81,0,0,0,5,1.87,10.91,10.91,0,0,0,4,.38,46.4,46.4,0,0,0,15,.93A31.55,31.55,0,0,0,209.52,436c-3.07-13.78,7-7.67,11.11-9.19,1.46-.12,4,2,6.32,3,4.24-.41,5.66-7.4,12.53.48,14.74,18.09,28,34.12,40.31,46.88a143.54,143.54,0,0,0,11,9.8c4.63,3.81,9.86,7.94,14.93,11.85,10.14,7.81,19.51,14.72,22.8,16.11,9.58,5.42,16-8.87,23.91-7,.16,0,.18,6.07.6,9.23s-2.1,6.52-2.4,10.47C350,535.53,347.05,542.59,337.27,539.66Z"/><path class="cls-8" d="M144.22,341.19c-.53,1.36-1.33,1.36-2.26.27-1.87-2-3.34-6.69-.27-14.87,4.93-13,26.52-49.38,40.92-69.43,1.2-1.78,2.53-2.32,4.26-.82,5.2,4.64,6.67,9.41,3.2,20.19-4.26,13.09-9.06,29.05-14.13,48.15,14.53-24.28,34-44.61,48.65-67.93,1.2-1.91,2.27-2.05,3.87-.41,5.33,5.59,4,13.09.4,19.92-9.33,17.73-22.66,45.28-29.33,64.93-.53,1.36-1.06,1.36-2.13.4-2.13-1.77-3.73-5.86-1.46-14.86,2-8.05,10.53-27.15,19.19-44.2-15.2,18.82-30.66,39.69-40.25,58-.67,1.37-1.34,1.78-2.4,1-4.4-3.28-6.4-8-5.07-16.51,1.2-7.77,5.6-26.6,11.47-44.74C167,298.49,152.09,322.91,144.22,341.19Z"/><path class="cls-8" d="M239.94,324.65c10,.49,18.8-9.37,24-17.52.61-1,1.57-1,2.05.13s.12,4.44-2.05,7.65c-5.06,7.52-14.34,13.19-23.62,13.32-15.3.24-20.61-15.17-12.77-31.09s20.12-22.32,26.15-18.74a22.68,22.68,0,0,1,7.11,6.41c2.17,3,1.21,10.48-3.86,16.77-5.9,7.4-14,10.61-22.41,3.58C230.66,316.51,233.55,324.28,239.94,324.65Zm10-28.37c3.86-5.18,6.51-11.59,4.82-12.95-2.53-2.1-12.53,5.3-18.19,17-.37.74-.73,1.48-1,2.1C241.51,306.27,246.45,301,249.94,296.28Z"/><path class="cls-8" d="M288.63,331.31c-6.63,16.53-15.19,36.14-24.95,40.09-2.41,1-4.82.61-7-2.59-2.53-3.7-4.7-8-2.41-15.3,3.49-11.1,13.86-18.62,25.79-23.31,1.2-2.71,2.29-5.67,3.49-8.51-3.49,3.58-7.71,6.17-12.17,6.17-11.09,0-13.25-15.42-3.49-30.22,9.4-14.31,19.16-19.86,25.31-19.86,4.82,0,7.23,3.82,7.11,8.14,1.44-2.47,2.77-4.69,4-6.78,1-1.73,2.17-1.85,3-.74,1.8,2.22,2.77,7.52-.24,13.56-3.62,7.4-11.21,22.33-16.27,34.29a60.49,60.49,0,0,0,21.57-18.5c.72-1,1.81-1,2.05.25s-.36,3.82-2.41,7.15C307.31,322.68,298.63,327.61,288.63,331.31ZM259.1,364.49c1.57,2.34,11.09-10.48,18.92-29.23C262.35,344.63,257.05,361.53,259.1,364.49ZM295,284.07c-3.73-.25-12.53,7.65-19.16,18.38s-7.83,21.46-3,21.58,10.85-7.64,17-18.5C297.42,292,298.51,284.32,295,284.07Z"/><path class="cls-8" d="M353.7,278.64q1.64-2.4,2.89-.74c1.81,2.22,2.78,7.53-.12,13.69-2.65,5.55-8.67,14.8-11.57,21.34-3,6.91-3.13,12.21,1,12,4.94-.25,11.57-8.64,15.79-17.15.6-1.11,1.44-1.23,1.92-.12s.49,4.19-1.08,7.65c-3.13,6.78-10.73,13.56-17.36,13.19s-9.88-4.31-9.88-10.11C331.41,323.42,326,328,320.2,328c-11.21,0-13.5-15.66-3.5-30.59,9.76-14.55,19.29-20.1,25.31-20.1,5.18,0,7.59,4.07,7.35,8.88C350.93,283.21,352.38,280.62,353.7,278.64Zm-9.64,5.06c-3.86-.37-12.65,7.65-19.28,18.62-6.39,10.61-8,21.47-3.26,21.59,4.94.12,11.21-7.77,17.36-18.63C346.47,291.72,347.56,284.07,344.06,283.7Z"/><path class="cls-8" d="M396.24,277.9c4,.62,7.71,6.66,4.7,13.08-2.53,5.42-8.44,14.55-11.21,21-3.13,7.15-2.41,12.95,1.93,12.7,4.94-.25,10.85-8.39,15.43-17,.6-1.11,1.44-1.11,2.05-.13.84,1.36.6,4.2-1.09,7.78-3.25,6.9-10.85,13.19-17.84,13.19-10.24,0-12.65-7.64-9.16-18.37,4-12.09,14.59-25.17,12.42-26.15-1.21-.5-8.2,3-15.91,11.59-7.11,7.89-12.41,19.74-17.6,31.33-.48,1.11-1.2,1.6-2.29.49-2.41-2.46-3.13-6.53-1.2-12.7,2.41-7.77,11.69-24.92,19.28-36.39.85-1.35,1.81-1.23,2.53,0,1.81,3.09,1.69,7.28.36,11.72C384.07,284.07,392.26,277.29,396.24,277.9Z"/><path class="cls-8" d="M434.79,342.2c-.54,1.36-1.34,1.36-2.27.27-1.87-2-3.33-6.68-.27-14.87,4.93-13,26.53-49.38,40.92-69.43,1.2-1.77,2.53-2.32,4.27-.82,5.19,4.64,6.66,9.42,3.19,20.19-4.26,13.1-9.06,29.06-14.12,48.15,14.52-24.28,34-44.6,48.64-67.93,1.2-1.91,2.27-2,3.87-.41,5.33,5.6,4,13.1.4,19.92-9.33,17.73-22.66,45.29-29.32,64.93-.54,1.36-1.07,1.36-2.14.41-2.13-1.77-3.73-5.87-1.46-14.87,2-8.05,10.53-27.14,19.19-44.2-15.19,18.83-30.65,39.7-40.25,58-.67,1.36-1.33,1.77-2.4,1-4.4-3.27-6.4-8-5.06-16.5,1.19-7.78,5.59-26.6,11.46-44.74C457.58,299.5,442.65,323.92,434.79,342.2Z"/><path class="cls-8" d="M524.11,327.61c-11.09,0-13.5-15.66-3.5-30.47,9.65-14.18,19.17-19.85,25.31-19.85,4.7,0,7.11,3.82,7.11,8.14,1.81-3.09,3.38-5.55,4.22-6.79,1-1.48,1.93-1.85,2.89-.74,1.93,2.22,2.78,7.4.12,13.57-2.41,5.55-8.79,15.17-11.44,21.46-2.9,7-2.42,11.6,1.32,11.23,7.71-.74,18.56-15.91,24.22-34.05-9.76-3.57,1.69-20.35,6.51-20.72,3.74-.25,2.53,7,0,15.54,4.34-.49,8.8-2.59,13.38-5.79,1.69-1.24,2.53-1.48,3.62-.25,2.29,2.59,5.18,8.26,1.69,12.46-5.67,6.66-11.82,15.29-13.75,21.46-2,6.78-.72,11.59,3,11.84,5.06.37,11.09-7.77,14.94-17,.48-1,1.33-1.24,1.81,0a11.18,11.18,0,0,1-.48,8c-3.13,7.4-10.25,12.82-16.88,12.58-9.15-.37-12.77-8.88-9.88-18.75,2.41-8.14,9.76-17.27,14.95-23.19-5.31,3.21-10.49,4.56-14.22,4.56-5.91,17.4-16.76,36-29.65,37-6.63.49-10.25-3.83-10.12-10.12C535.44,322.8,530,327.61,524.11,327.61Zm4.46-25.53c-6.51,10.6-7.84,21.34-3.13,21.46s11.08-7.4,17.23-18.5c7.47-13.45,8.56-21.22,5.06-21.46C544,283.33,535.2,291.22,528.57,302.08Z"/><path class="cls-8" d="M601.84,310.1c3-9,11-23.56,15.42-30,1.09-1.48,1.93-1.85,2.9-.74,1.8,2,2.77,7.28-.12,13.45-2.53,5.42-7.6,13.81-10.13,20-2.89,7.15-2.65,12,1.21,11.72,5.42-.25,12-8.39,15.67-16.9.6-1.11,1.44-1,1.92,0,1,2,.61,4.56-.84,7.65-3.62,7.64-11.21,12.82-18,12.82C600.75,328.1,598.46,320.21,601.84,310.1Zm26.87-32.2c-1.56,1.73-4.94,1.36-6.75-1.85a7.81,7.81,0,0,1,.61-9.13c1.93-2.09,5.42-.61,7,2.72A7.59,7.59,0,0,1,628.71,277.9Z"/><path class="cls-8" d="M642.33,324.65c10,.49,18.8-9.37,24-17.52.61-1,1.57-1,2.05.13s.12,4.44-2.05,7.65c-5.06,7.52-14.34,13.19-23.62,13.32-15.3.24-20.61-15.17-12.77-31.09S650,274.82,656.07,278.4a22.68,22.68,0,0,1,7.11,6.41c2.17,3,1.2,10.48-3.86,16.77-5.9,7.4-14,10.61-22.41,3.58C633.05,316.51,635.94,324.28,642.33,324.65Zm10-28.37c3.86-5.18,6.51-11.59,4.82-12.95-2.53-2.1-12.53,5.3-18.19,17-.37.74-.73,1.48-1,2.1C643.9,306.27,648.84,301,652.33,296.28Z"/><path class="cls-9" d="M555.82,345.46h6c6.53,0,8.44,4.48,8.44,9.11,0,5.17-2.63,9.16-8.49,9.16h-5.94Zm1.13,17.3h4.91c3.4,0,7.27-1.87,7.27-8.19,0-7.47-4.79-8.14-7.5-8.14H557Z"/><path class="cls-9" d="M585.3,362.76v1H572.89V345.46h12.28v1H574v7.32h10.49v1H574v8Z"/><path class="cls-9" d="M599.15,350.68c-.13-3.12-2.49-4.68-5.86-4.68-2.08,0-5,.87-5,3.89s3.12,3.43,6.22,4.07,6.24,1.43,6.24,5.06c0,3.79-3.63,5.15-6.42,5.15-4.27,0-7.75-1.77-7.7-6.48h1.13c-.24,4,3,5.5,6.57,5.5,2.2,0,5.3-1,5.3-4.17s-3.12-3.63-6.25-4.27-6.21-1.38-6.21-4.86,3.25-4.86,6.14-4.86c3.81,0,6.8,1.63,7,5.65Z"/><path class="cls-9" d="M603.34,345.46h1.13v18.27h-1.13Z"/><path class="cls-9" d="M623.56,354.78v9h-1v-3.89h-.05c-.9,2.66-3.69,4.33-6.91,4.33-5.53,0-8.6-4.23-8.6-9.47s3.12-9.67,8.62-9.67a7.33,7.33,0,0,1,7.6,6.09h-1.07a6.44,6.44,0,0,0-6.5-5.12c-4.94,0-7.52,4.14-7.52,8.7s2.5,8.49,7.52,8.49c4.35,0,7.09-3,6.91-7.44h-6.73v-1Z"/><path class="cls-9" d="M626.66,345.46h1.41l11.54,16.76h0V345.46h1.12v18.27h-1.33l-11.61-16.89h-.05v16.89h-1.13Z"/></svg>